<svg width="683" height="768" viewBox="0 0 683 768" fill="none" xmlns="http://www.w3.org/2000/svg">
<g clip-path="url(#clip0_77_40)">
<rect width="683" height="768" fill="url(#paint0_linear_77_40)"/>
<rect width="683" height="768" fill="url(#paint1_linear_77_40)" fill-opacity="0.2"/>
<path fill-rule="evenodd" clip-rule="evenodd" d="M326.359 317.266C285.999 326.744 262.37 365.611 273.94 403.489C282.563 431.72 311.722 452.869 340.785 451.973L348.272 451.742L351.62 443.367C366.501 406.134 364.889 357.598 347.616 322.849L344.288 316.154L338.312 316.009C334.878 315.925 329.793 316.46 326.359 317.266ZM371.568 327.092C382.973 350.987 380.918 392.127 366.31 432.401C362.196 443.742 362.64 443.661 370.681 431.602C385.472 409.415 393.324 379.024 392.191 348.344C391.82 338.314 391.505 336.001 390.327 334.684C388.216 332.322 375.842 324.205 372.124 322.743L368.885 321.469L371.568 327.092ZM405.011 370.211C404.052 397.421 393.283 421.885 373.879 440.933C367.318 447.374 367.516 447.515 376.676 442.911C404.606 428.875 419.287 391.635 408.387 362.475C405.824 355.618 405.5 356.361 405.011 370.211Z" fill="white"/>
<path opacity="0.25" d="M475.654 335.584C476.221 337.172 475.951 339.085 474.784 341.328C473.617 343.57 471.583 346.083 468.734 348.818C463.04 354.285 454.181 360.555 442.809 367.231C420.071 380.58 387.379 395.501 350.122 408.821C312.865 422.141 278.124 431.331 252.077 435.424C239.05 437.471 228.223 438.239 220.353 437.621C216.417 437.312 213.25 436.659 210.926 435.665C208.602 434.67 207.18 433.362 206.612 431.775C206.045 430.187 206.315 428.274 207.482 426.032C208.649 423.789 210.683 421.276 213.532 418.541C219.226 413.075 228.086 406.804 239.458 400.128C262.195 386.779 294.888 371.859 332.144 358.538C369.401 345.218 404.143 336.028 430.189 331.935C443.217 329.888 454.043 329.12 461.913 329.738C465.85 330.047 469.016 330.7 471.34 331.695C473.665 332.689 475.086 333.997 475.654 335.584Z" stroke="white"/>
<path opacity="0.25" d="M575.25 299.976C576.284 302.868 575.772 306.303 573.718 310.251C571.665 314.197 568.098 318.597 563.133 323.363C553.208 332.892 537.783 343.806 518.011 355.414C478.473 378.626 421.637 404.564 356.878 427.717C292.119 450.871 231.722 466.847 186.429 473.964C163.779 477.524 144.932 478.863 131.214 477.787C124.353 477.248 118.806 476.108 114.715 474.358C110.624 472.608 108.05 470.275 107.016 467.383C105.982 464.491 106.494 461.056 108.548 457.108C110.602 453.162 114.169 448.762 119.133 443.996C129.059 434.467 144.483 423.553 164.256 411.945C203.794 388.733 260.629 362.795 325.388 339.642C390.148 316.488 450.544 300.512 495.837 293.395C518.487 289.835 537.335 288.496 551.052 289.572C557.913 290.111 563.461 291.251 567.551 293.001C571.642 294.751 574.216 297.084 575.25 299.976Z" stroke="white"/>
<path opacity="0.25" d="M682.937 261.475C684.475 265.777 683.702 270.859 680.689 276.649C677.677 282.439 672.453 288.878 665.201 295.84C650.7 309.762 628.177 325.697 599.322 342.637C541.619 376.514 458.679 414.364 364.183 448.149C269.687 481.934 181.551 505.249 115.449 515.636C82.3937 520.83 54.8741 522.788 34.8332 521.215C24.8109 520.429 16.6891 518.762 10.6887 516.195C4.68751 513.627 0.86801 510.187 -0.670262 505.884C-2.20853 501.582 -1.43595 496.5 1.57701 490.71C4.58962 484.92 9.81344 478.481 17.0653 471.519C31.5664 457.597 54.0888 441.662 82.9442 424.722C140.648 390.845 223.587 352.995 318.083 319.21C412.58 285.425 500.716 262.11 566.818 251.723C599.873 246.529 627.392 244.571 647.433 246.144C657.455 246.93 665.577 248.597 671.578 251.164C677.579 253.732 681.398 257.172 682.937 261.475Z" stroke="white"/>
<g filter="url(#filter0_f_77_40)">
<path d="M539 188L540.08 190.92L543 192L540.08 193.08L539 196L537.92 193.08L535 192L537.92 190.92L539 188Z" fill="white" fill-opacity="0.5"/>
</g>
<g filter="url(#filter1_f_77_40)">
<path d="M126 293L127.08 295.92L130 297L127.08 298.08L126 301L124.92 298.08L122 297L124.92 295.92L126 293Z" fill="white" fill-opacity="0.5"/>
</g>
<g filter="url(#filter2_f_77_40)">
<path d="M126 293L127.08 295.92L130 297L127.08 298.08L126 301L124.92 298.08L122 297L124.92 295.92L126 293Z" fill="white" fill-opacity="0.5"/>
</g>
<g filter="url(#filter3_f_77_40)">
<path d="M474 103L475.08 105.92L478 107L475.08 108.08L474 111L472.92 108.08L470 107L472.92 105.92L474 103Z" fill="white" fill-opacity="0.5"/>
</g>
<g filter="url(#filter4_f_77_40)">
<path d="M338 255L339.08 257.92L342 259L339.08 260.08L338 263L336.92 260.08L334 259L336.92 257.92L338 255Z" fill="white" fill-opacity="0.5"/>
</g>
<g filter="url(#filter5_f_77_40)">
<path d="M670 14L671.08 16.9196L674 18L671.08 19.0804L670 22L668.92 19.0804L666 18L668.92 16.9196L670 14Z" fill="white" fill-opacity="0.5"/>
</g>
<g filter="url(#filter6_f_77_40)">
<path d="M531 618L532.08 620.92L535 622L532.08 623.08L531 626L529.92 623.08L527 622L529.92 620.92L531 618Z" fill="white" fill-opacity="0.5"/>
</g>
<g filter="url(#filter7_f_77_40)">
<path d="M260 532L261.08 534.92L264 536L261.08 537.08L260 540L258.92 537.08L256 536L258.92 534.92L260 532Z" fill="white" fill-opacity="0.5"/>
</g>
<g filter="url(#filter8_f_77_40)">
<path d="M632 452L633.08 454.92L636 456L633.08 457.08L632 460L630.92 457.08L628 456L630.92 454.92L632 452Z" fill="white" fill-opacity="0.5"/>
</g>
<g filter="url(#filter9_f_77_40)">
<path d="M636 718L637.08 720.92L640 722L637.08 723.08L636 726L634.92 723.08L632 722L634.92 720.92L636 718Z" fill="white" fill-opacity="0.5"/>
</g>
<g filter="url(#filter10_f_77_40)">
<path d="M515 316L516.08 318.92L519 320L516.08 321.08L515 324L513.92 321.08L511 320L513.92 318.92L515 316Z" fill="white" fill-opacity="0.5"/>
</g>
<g filter="url(#filter11_f_77_40)">
<path d="M317 680L318.08 682.92L321 684L318.08 685.08L317 688L315.92 685.08L313 684L315.92 682.92L317 680Z" fill="white" fill-opacity="0.5"/>
</g>
<g filter="url(#filter12_f_77_40)">
<path d="M448 488L449.08 490.92L452 492L449.08 493.08L448 496L446.92 493.08L444 492L446.92 490.92L448 488Z" fill="white" fill-opacity="0.5"/>
</g>
<g filter="url(#filter13_f_77_40)">
<path d="M87 610L88.0804 612.92L91 614L88.0804 615.08L87 618L85.9196 615.08L83 614L85.9196 612.92L87 610Z" fill="white" fill-opacity="0.5"/>
</g>
<g filter="url(#filter14_f_77_40)">
<path d="M287 76L288.08 78.9196L291 80L288.08 81.0804L287 84L285.92 81.0804L283 80L285.92 78.9196L287 76Z" fill="white" fill-opacity="0.5"/>
</g>
<g filter="url(#filter15_f_77_40)">
<path d="M69 473L70.0804 475.92L73 477L70.0804 478.08L69 481L67.9196 478.08L65 477L67.9196 475.92L69 473Z" fill="white" fill-opacity="0.5"/>
</g>
<path d="M315 63.5C361.636 55.8841 418 0 418 0H141C141 0 128.773 44.0027 109 63.5C85.6843 86.4904 60.3482 110.991 31.5 95.5C-1.35767 77.8564 31.5 0 31.5 0H0V768H62C62 768 51.1058 725.927 62 703C86.1891 652.093 225.121 669.852 205 722.5C195.419 747.569 153.5 768 153.5 768H380.5C380.5 768 300.088 743.63 272 703C248.811 669.457 277.184 627.67 245.5 602C202.852 567.447 161.991 649.805 109 635.5C15.2103 610.181 39.5599 493.646 40 396.5C40.4333 300.854 14.1504 173.828 109 161.5C168.765 153.732 200.701 273.814 245.5 233.5C267.772 213.458 277.028 191.037 272 161.5C264 114.5 187.967 81.4722 224 51.5C251.558 28.5775 279.623 69.2772 315 63.5Z" fill="white"/>
<g filter="url(#filter16_f_77_40)">
<path d="M503.5 559.5C479.54 568.179 475.569 590.632 470 615.5C466.117 632.839 455.611 650.575 470 661C483.73 670.948 499.798 661.773 512 650C526.947 635.579 505.878 612.25 520.5 597.5C533.905 583.977 557.414 602.327 568 586.5C583.182 563.803 529.174 550.2 503.5 559.5Z" fill="url(#paint2_radial_77_40)" fill-opacity="0.8"/>
</g>
<g filter="url(#filter17_f_77_40)">
<path d="M352.97 178.601C377.068 186.888 394.255 171.904 414.202 156.044C428.11 144.985 447.422 137.776 442.767 120.628C438.325 104.265 420.058 101.319 403.17 102.822C382.482 104.664 384.235 136.049 363.594 138.351C344.67 140.461 337.891 111.419 319.715 117.092C293.649 125.228 327.147 169.722 352.97 178.601Z" fill="url(#paint3_radial_77_40)" fill-opacity="0.7"/>
</g>
<g filter="url(#filter18_f_77_40)">
<path d="M112.122 612.456C136.221 620.742 153.408 605.758 173.355 589.898C187.263 578.84 206.575 571.631 201.92 554.482C197.477 538.119 179.211 535.174 162.322 536.677C141.634 538.518 143.388 569.903 122.746 572.205C103.823 574.315 97.044 545.274 78.8679 550.946C52.8013 559.082 86.2994 603.577 112.122 612.456Z" fill="url(#paint4_radial_77_40)" fill-opacity="0.5"/>
</g>
<g filter="url(#filter19_f_77_40)">
<path d="M662.192 266.822C636.757 268.401 669.563 303.683 657.215 325.976C648.606 341.519 590.589 340.721 601.46 354.777C611.832 368.189 629.834 363.911 644.858 356.052C663.261 346.425 664.531 346.511 682.715 336.476C699.386 327.276 656.385 325.585 671 313.38C691.96 295.878 689.446 265.129 662.192 266.822Z" fill="url(#paint5_radial_77_40)" fill-opacity="0.7"/>
</g>
<g filter="url(#filter20_f_77_40)">
<path d="M422.655 52.8374C399.146 43.0007 381.021 56.8346 360.085 71.3634C345.486 81.4937 325.746 87.4312 329.276 104.846C332.644 121.463 350.681 125.591 367.631 125.19C388.395 124.699 388.687 93.2656 409.435 92.3117C428.455 91.4373 433.33 120.858 451.837 116.38C478.378 109.957 447.845 63.3778 422.655 52.8374Z" fill="url(#paint6_radial_77_40)" fill-opacity="0.5"/>
</g>
<g filter="url(#filter21_f_77_40)">
<path d="M101 22L102.08 24.9196L105 26L102.08 27.0804L101 30L99.9196 27.0804L97 26L99.9196 24.9196L101 22Z" fill="white" fill-opacity="0.5"/>
</g>
<g filter="url(#filter22_f_77_40)">
<path d="M45 61L46.0804 63.9196L49 65L46.0804 66.0804L45 69L43.9196 66.0804L41 65L43.9196 63.9196L45 61Z" fill="white" fill-opacity="0.5"/>
</g>
<g filter="url(#filter23_f_77_40)">
<path d="M93 710L94.0804 712.92L97 714L94.0804 715.08L93 718L91.9196 715.08L89 714L91.9196 712.92L93 710Z" fill="white" fill-opacity="0.5"/>
</g>
<g filter="url(#filter24_f_77_40)">
<path d="M134 750L135.08 752.92L138 754L135.08 755.08L134 758L132.92 755.08L130 754L132.92 752.92L134 750Z" fill="white" fill-opacity="0.5"/>
</g>
<g filter="url(#filter25_f_77_40)">
<path d="M179 696L180.08 698.92L183 700L180.08 701.08L179 704L177.92 701.08L175 700L177.92 698.92L179 696Z" fill="white" fill-opacity="0.5"/>
</g>
</g>
<defs>
<filter id="filter0_f_77_40" x="534" y="187" width="10" height="10" filterUnits="userSpaceOnUse" color-interpolation-filters="sRGB">
<feFlood flood-opacity="0" result="BackgroundImageFix"/>
<feBlend mode="normal" in="SourceGraphic" in2="BackgroundImageFix" result="shape"/>
<feGaussianBlur stdDeviation="0.5" result="effect1_foregroundBlur_77_40"/>
</filter>
<filter id="filter1_f_77_40" x="121" y="292" width="10" height="10" filterUnits="userSpaceOnUse" color-interpolation-filters="sRGB">
<feFlood flood-opacity="0" result="BackgroundImageFix"/>
<feBlend mode="normal" in="SourceGraphic" in2="BackgroundImageFix" result="shape"/>
<feGaussianBlur stdDeviation="0.5" result="effect1_foregroundBlur_77_40"/>
</filter>
<filter id="filter2_f_77_40" x="121" y="292" width="10" height="10" filterUnits="userSpaceOnUse" color-interpolation-filters="sRGB">
<feFlood flood-opacity="0" result="BackgroundImageFix"/>
<feBlend mode="normal" in="SourceGraphic" in2="BackgroundImageFix" result="shape"/>
<feGaussianBlur stdDeviation="0.5" result="effect1_foregroundBlur_77_40"/>
</filter>
<filter id="filter3_f_77_40" x="469" y="102" width="10" height="10" filterUnits="userSpaceOnUse" color-interpolation-filters="sRGB">
<feFlood flood-opacity="0" result="BackgroundImageFix"/>
<feBlend mode="normal" in="SourceGraphic" in2="BackgroundImageFix" result="shape"/>
<feGaussianBlur stdDeviation="0.5" result="effect1_foregroundBlur_77_40"/>
</filter>
<filter id="filter4_f_77_40" x="333" y="254" width="10" height="10" filterUnits="userSpaceOnUse" color-interpolation-filters="sRGB">
<feFlood flood-opacity="0" result="BackgroundImageFix"/>
<feBlend mode="normal" in="SourceGraphic" in2="BackgroundImageFix" result="shape"/>
<feGaussianBlur stdDeviation="0.5" result="effect1_foregroundBlur_77_40"/>
</filter>
<filter id="filter5_f_77_40" x="665" y="13" width="10" height="10" filterUnits="userSpaceOnUse" color-interpolation-filters="sRGB">
<feFlood flood-opacity="0" result="BackgroundImageFix"/>
<feBlend mode="normal" in="SourceGraphic" in2="BackgroundImageFix" result="shape"/>
<feGaussianBlur stdDeviation="0.5" result="effect1_foregroundBlur_77_40"/>
</filter>
<filter id="filter6_f_77_40" x="526" y="617" width="10" height="10" filterUnits="userSpaceOnUse" color-interpolation-filters="sRGB">
<feFlood flood-opacity="0" result="BackgroundImageFix"/>
<feBlend mode="normal" in="SourceGraphic" in2="BackgroundImageFix" result="shape"/>
<feGaussianBlur stdDeviation="0.5" result="effect1_foregroundBlur_77_40"/>
</filter>
<filter id="filter7_f_77_40" x="255" y="531" width="10" height="10" filterUnits="userSpaceOnUse" color-interpolation-filters="sRGB">
<feFlood flood-opacity="0" result="BackgroundImageFix"/>
<feBlend mode="normal" in="SourceGraphic" in2="BackgroundImageFix" result="shape"/>
<feGaussianBlur stdDeviation="0.5" result="effect1_foregroundBlur_77_40"/>
</filter>
<filter id="filter8_f_77_40" x="627" y="451" width="10" height="10" filterUnits="userSpaceOnUse" color-interpolation-filters="sRGB">
<feFlood flood-opacity="0" result="BackgroundImageFix"/>
<feBlend mode="normal" in="SourceGraphic" in2="BackgroundImageFix" result="shape"/>
<feGaussianBlur stdDeviation="0.5" result="effect1_foregroundBlur_77_40"/>
</filter>
<filter id="filter9_f_77_40" x="631" y="717" width="10" height="10" filterUnits="userSpaceOnUse" color-interpolation-filters="sRGB">
<feFlood flood-opacity="0" result="BackgroundImageFix"/>
<feBlend mode="normal" in="SourceGraphic" in2="BackgroundImageFix" result="shape"/>
<feGaussianBlur stdDeviation="0.5" result="effect1_foregroundBlur_77_40"/>
</filter>
<filter id="filter10_f_77_40" x="510" y="315" width="10" height="10" filterUnits="userSpaceOnUse" color-interpolation-filters="sRGB">
<feFlood flood-opacity="0" result="BackgroundImageFix"/>
<feBlend mode="normal" in="SourceGraphic" in2="BackgroundImageFix" result="shape"/>
<feGaussianBlur stdDeviation="0.5" result="effect1_foregroundBlur_77_40"/>
</filter>
<filter id="filter11_f_77_40" x="312" y="679" width="10" height="10" filterUnits="userSpaceOnUse" color-interpolation-filters="sRGB">
<feFlood flood-opacity="0" result="BackgroundImageFix"/>
<feBlend mode="normal" in="SourceGraphic" in2="BackgroundImageFix" result="shape"/>
<feGaussianBlur stdDeviation="0.5" result="effect1_foregroundBlur_77_40"/>
</filter>
<filter id="filter12_f_77_40" x="443" y="487" width="10" height="10" filterUnits="userSpaceOnUse" color-interpolation-filters="sRGB">
<feFlood flood-opacity="0" result="BackgroundImageFix"/>
<feBlend mode="normal" in="SourceGraphic" in2="BackgroundImageFix" result="shape"/>
<feGaussianBlur stdDeviation="0.5" result="effect1_foregroundBlur_77_40"/>
</filter>
<filter id="filter13_f_77_40" x="82" y="609" width="10" height="10" filterUnits="userSpaceOnUse" color-interpolation-filters="sRGB">
<feFlood flood-opacity="0" result="BackgroundImageFix"/>
<feBlend mode="normal" in="SourceGraphic" in2="BackgroundImageFix" result="shape"/>
<feGaussianBlur stdDeviation="0.5" result="effect1_foregroundBlur_77_40"/>
</filter>
<filter id="filter14_f_77_40" x="282" y="75" width="10" height="10" filterUnits="userSpaceOnUse" color-interpolation-filters="sRGB">
<feFlood flood-opacity="0" result="BackgroundImageFix"/>
<feBlend mode="normal" in="SourceGraphic" in2="BackgroundImageFix" result="shape"/>
<feGaussianBlur stdDeviation="0.5" result="effect1_foregroundBlur_77_40"/>
</filter>
<filter id="filter15_f_77_40" x="64" y="472" width="10" height="10" filterUnits="userSpaceOnUse" color-interpolation-filters="sRGB">
<feFlood flood-opacity="0" result="BackgroundImageFix"/>
<feBlend mode="normal" in="SourceGraphic" in2="BackgroundImageFix" result="shape"/>
<feGaussianBlur stdDeviation="0.5" result="effect1_foregroundBlur_77_40"/>
</filter>
<filter id="filter16_f_77_40" x="432.651" y="526.54" width="167.994" height="168.696" filterUnits="userSpaceOnUse" color-interpolation-filters="sRGB">
<feFlood flood-opacity="0" result="BackgroundImageFix"/>
<feBlend mode="normal" in="SourceGraphic" in2="BackgroundImageFix" result="shape"/>
<feGaussianBlur stdDeviation="15" result="effect1_foregroundBlur_77_40"/>
</filter>
<filter id="filter17_f_77_40" x="280.279" y="72.4765" width="193.196" height="138.484" filterUnits="userSpaceOnUse" color-interpolation-filters="sRGB">
<feFlood flood-opacity="0" result="BackgroundImageFix"/>
<feBlend mode="normal" in="SourceGraphic" in2="BackgroundImageFix" result="shape"/>
<feGaussianBlur stdDeviation="15" result="effect1_foregroundBlur_77_40"/>
</filter>
<filter id="filter18_f_77_40" x="29.4315" y="496.331" width="213.196" height="158.484" filterUnits="userSpaceOnUse" color-interpolation-filters="sRGB">
<feFlood flood-opacity="0" result="BackgroundImageFix"/>
<feBlend mode="normal" in="SourceGraphic" in2="BackgroundImageFix" result="shape"/>
<feGaussianBlur stdDeviation="20" result="effect1_foregroundBlur_77_40"/>
</filter>
<filter id="filter19_f_77_40" x="570.108" y="236.755" width="146.513" height="156.675" filterUnits="userSpaceOnUse" color-interpolation-filters="sRGB">
<feFlood flood-opacity="0" result="BackgroundImageFix"/>
<feBlend mode="normal" in="SourceGraphic" in2="BackgroundImageFix" result="shape"/>
<feGaussianBlur stdDeviation="15" result="effect1_foregroundBlur_77_40"/>
</filter>
<filter id="filter20_f_77_40" x="298.861" y="19.5259" width="193.222" height="135.69" filterUnits="userSpaceOnUse" color-interpolation-filters="sRGB">
<feFlood flood-opacity="0" result="BackgroundImageFix"/>
<feBlend mode="normal" in="SourceGraphic" in2="BackgroundImageFix" result="shape"/>
<feGaussianBlur stdDeviation="15" result="effect1_foregroundBlur_77_40"/>
</filter>
<filter id="filter21_f_77_40" x="96" y="21" width="10" height="10" filterUnits="userSpaceOnUse" color-interpolation-filters="sRGB">
<feFlood flood-opacity="0" result="BackgroundImageFix"/>
<feBlend mode="normal" in="SourceGraphic" in2="BackgroundImageFix" result="shape"/>
<feGaussianBlur stdDeviation="0.5" result="effect1_foregroundBlur_77_40"/>
</filter>
<filter id="filter22_f_77_40" x="40" y="60" width="10" height="10" filterUnits="userSpaceOnUse" color-interpolation-filters="sRGB">
<feFlood flood-opacity="0" result="BackgroundImageFix"/>
<feBlend mode="normal" in="SourceGraphic" in2="BackgroundImageFix" result="shape"/>
<feGaussianBlur stdDeviation="0.5" result="effect1_foregroundBlur_77_40"/>
</filter>
<filter id="filter23_f_77_40" x="88" y="709" width="10" height="10" filterUnits="userSpaceOnUse" color-interpolation-filters="sRGB">
<feFlood flood-opacity="0" result="BackgroundImageFix"/>
<feBlend mode="normal" in="SourceGraphic" in2="BackgroundImageFix" result="shape"/>
<feGaussianBlur stdDeviation="0.5" result="effect1_foregroundBlur_77_40"/>
</filter>
<filter id="filter24_f_77_40" x="129" y="749" width="10" height="10" filterUnits="userSpaceOnUse" color-interpolation-filters="sRGB">
<feFlood flood-opacity="0" result="BackgroundImageFix"/>
<feBlend mode="normal" in="SourceGraphic" in2="BackgroundImageFix" result="shape"/>
<feGaussianBlur stdDeviation="0.5" result="effect1_foregroundBlur_77_40"/>
</filter>
<filter id="filter25_f_77_40" x="174" y="695" width="10" height="10" filterUnits="userSpaceOnUse" color-interpolation-filters="sRGB">
<feFlood flood-opacity="0" result="BackgroundImageFix"/>
<feBlend mode="normal" in="SourceGraphic" in2="BackgroundImageFix" result="shape"/>
<feGaussianBlur stdDeviation="0.5" result="effect1_foregroundBlur_77_40"/>
</filter>
<linearGradient id="paint0_linear_77_40" x1="683" y1="3.62043e-05" x2="3.80141e-05" y2="768" gradientUnits="userSpaceOnUse">
<stop stop-color="#060047"/>
<stop offset="1"/>
</linearGradient>
<linearGradient id="paint1_linear_77_40" x1="683" y1="124" x2="-2.3105e-08" y2="1.27263e-07" gradientUnits="userSpaceOnUse">
<stop stop-color="#060047"/>
<stop offset="1"/>
</linearGradient>
<radialGradient id="paint2_radial_77_40" cx="0" cy="0" r="1" gradientUnits="userSpaceOnUse" gradientTransform="translate(516.648 610.888) rotate(93.8569) scale(98.8359 98.1971)">
<stop stop-color="#F36E29"/>
<stop offset="0.442708" stop-color="#060047"/>
<stop offset="0.762482"/>
</radialGradient>
<radialGradient id="paint3_radial_77_40" cx="0" cy="0" r="1" gradientUnits="userSpaceOnUse" gradientTransform="translate(374.997 130.348) rotate(-47.2549) scale(98.8359 98.1971)">
<stop stop-color="#F36E29"/>
<stop offset="0.442708" stop-color="#060047"/>
<stop offset="0.762482"/>
</radialGradient>
<radialGradient id="paint4_radial_77_40" cx="0" cy="0" r="1" gradientUnits="userSpaceOnUse" gradientTransform="translate(134.15 564.202) rotate(-47.2549) scale(98.8359 98.1971)">
<stop stop-color="#F36E29"/>
<stop offset="0.442708" stop-color="#060047"/>
<stop offset="0.762482"/>
</radialGradient>
<radialGradient id="paint5_radial_77_40" cx="0" cy="0" r="1" gradientUnits="userSpaceOnUse" gradientTransform="translate(660.334 319.832) rotate(110.216) scale(98.8359 98.1972)">
<stop stop-color="#F36E29"/>
<stop offset="0.442708" stop-color="#060047"/>
<stop offset="0.762482"/>
</radialGradient>
<radialGradient id="paint6_radial_77_40" cx="0" cy="0" r="1" gradientUnits="userSpaceOnUse" gradientTransform="translate(397.535 99.5555) rotate(136.475) scale(98.8359 98.1971)">
<stop stop-color="#F36E29"/>
<stop offset="0.442708" stop-color="#060047"/>
<stop offset="0.762482"/>
</radialGradient>
<clipPath id="clip0_77_40">
<rect width="683" height="768" fill="white"/>
</clipPath>
</defs>
</svg>
